<?xml version="1.0" encoding="UTF-8" standalone="no"?>
<!-- Created with Inkscape (http://www.inkscape.org/) -->

<svg
   version="1.1"
   id="svg2"
   width="188.97333"
   height="49.413334"
   viewBox="0 0 188.97333 49.413334"
   sodipodi:docname="Jakala_logo_CMYK_full.eps"
   xmlns:inkscape="http://www.inkscape.org/namespaces/inkscape"
   xmlns:sodipodi="http://sodipodi.sourceforge.net/DTD/sodipodi-0.dtd"
   xmlns="http://www.w3.org/2000/svg"
   xmlns:svg="http://www.w3.org/2000/svg">
  <defs
     id="defs6" />
  <sodipodi:namedview
     id="namedview4"
     pagecolor="#ffffff"
     bordercolor="#000000"
     borderopacity="0.25"
     inkscape:showpageshadow="2"
     inkscape:pageopacity="0.0"
     inkscape:pagecheckerboard="0"
     inkscape:deskcolor="#d1d1d1" />
  <g
     id="g8"
     inkscape:groupmode="layer"
     inkscape:label="ink_ext_XXXXXX"
     transform="matrix(1.3333333,0,0,-1.3333333,0,49.413333)">
    <g
       id="g10"
       transform="scale(0.1)">
      <path
         d="m 335.648,225.586 h -52.222 l 25.976,89.418 z m 8.942,145.016 H 274.828 L 189.422,134.746 h 64.617 l 12.191,40.32 h 86.309 l 13.672,-40.32 h 63.785 L 344.59,370.602"
         style="fill:#202267;fill-opacity:1;fill-rule:nonzero;stroke:none"
         id="path12" />
      <path
         d="m 863.27,225.586 h -52.223 l 25.976,89.418 z m 8.945,145.016 H 802.449 L 717.043,134.746 h 64.617 l 12.192,40.32 h 86.308 l 13.668,-40.32 h 63.789 l -85.402,235.856"
         style="fill:#202267;fill-opacity:1;fill-rule:nonzero;stroke:none"
         id="path14" />
      <path
         d="m 1322.98,225.586 h -52.23 l 25.98,89.418 z m 8.94,145.016 h -69.77 l -85.4,-235.856 h 64.61 l 12.2,40.32 h 86.3 l 13.67,-40.32 h 63.79 l -85.4,235.856"
         style="fill:#202267;fill-opacity:1;fill-rule:nonzero;stroke:none"
         id="path16" />
      <path
         d="m 605.66,254.883 84.551,115.594 H 615.066 L 537.648,260.473 V 370.477 H 474.125 V 134.746 h 63.523 v 114.149 l 78.071,-114.149 h 77.73 L 605.66,254.883"
         style="fill:#202267;fill-opacity:1;fill-rule:nonzero;stroke:none"
         id="path18" />
      <path
         d="M 1065.44,184.996 V 370.477 H 1002.2 V 134.441 h 136.13 v 50.555 h -72.89"
         style="fill:#202267;fill-opacity:1;fill-rule:nonzero;stroke:none"
         id="path20" />
      <path
         d="M 146.227,18.8555 V 56.5664 L 112.949,75.4258 79.6719,56.5664 V 18.8555 L 112.949,0 146.227,18.8555"
         style="fill:#ee2328;fill-opacity:1;fill-rule:nonzero;stroke:none"
         id="path22" />
      <path
         d="M 146.227,18.8555 V 56.5664 L 112.949,75.4258 79.6719,56.5664 V 18.8555 L 112.949,0 146.227,18.8555"
         style="fill:#ed192e;fill-opacity:1;fill-rule:nonzero;stroke:none"
         id="path24" />
      <path
         d="m 80.9297,164.117 c -12.0781,-8.84 -22.5,-10.531 -35.2578,-8.117 -10.5703,2.004 -17.086,5.742 -23.543,9.18 L 0,118.16 C 24.832,100.313 53.1875,96.6836 80.9297,105.016 v 59.101"
         style="fill:#202267;fill-opacity:1;fill-rule:nonzero;stroke:none"
         id="path26" />
      <path
         d="m 80.9297,105.016 c 36.8943,9.203 64.0393,46.41 64.0393,82.16 V 370.602 H 80.9297 v -146.754 -22.707 -92.957 -3.168"
         style="fill:#ed192e;fill-opacity:1;fill-rule:nonzero;stroke:none"
         id="path28" />
    </g>
  </g>
</svg>
